<?xml version="1.0" encoding="iso-8859-1"?>
<!-- Uploaded to: SVG Repo, www.svgrepo.com, Generator: SVG Repo Mixer Tools -->
<svg height="800px" width="800px" version="1.1" id="Layer_1" xmlns="http://www.w3.org/2000/svg" xmlns:xlink="http://www.w3.org/1999/xlink" 
	 viewBox="0 0 512 512" xml:space="preserve">
<path style="fill:#FFAD61;" d="M477.279,439.329H59.826c-27.408,0-49.627-22.219-49.627-49.627V112.373h467.08V439.329z"/>
<g>
	<path style="fill:#FFE6B8;" d="M477.279,150.907H49.317c-21.604,0-39.118-17.514-39.118-39.118l0,0
		c0-21.604,17.514-39.118,39.118-39.118h400.521c15.155,0,27.441,12.286,27.441,27.441V150.907z"/>
	<path style="fill:#FFE6B8;" d="M409.115,349.562h92.686V238.338h-92.686c-30.714,0-55.611,24.898-55.611,55.611l0,0
		C353.503,324.664,378.401,349.562,409.115,349.562z"/>
</g>
<circle style="fill:#D35B38;" cx="411.67" cy="293.951" r="19.595"/>
<g>
	<path style="fill:#4D3D36;" d="M60.41,121.404h296.596c5.632,0,10.199-4.567,10.199-10.199s-4.567-10.199-10.199-10.199H60.41
		c-5.633,0-10.199,4.567-10.199,10.199S54.778,121.404,60.41,121.404z"/>
	<path style="fill:#4D3D36;" d="M406.948,121.404h12.845c5.632,0,10.199-4.567,10.199-10.199s-4.567-10.199-10.199-10.199h-12.845
		c-5.632,0-10.199,4.567-10.199,10.199S401.316,121.404,406.948,121.404z"/>
	<path style="fill:#4D3D36;" d="M487.478,100.112c0-20.755-16.886-37.64-37.639-37.64H49.317C22.123,62.472,0,84.595,0,111.788
		c0,0.131,0.009,0.258,0.01,0.389c-0.002,0.066-0.01,0.13-0.01,0.196v277.329c0,32.988,26.838,59.826,59.826,59.826h417.452
		c5.632,0,10.199-4.567,10.199-10.199v-79.568h14.323c5.632,0,10.199-4.567,10.199-10.199V238.339
		c0-5.632-4.567-10.199-10.199-10.199h-14.323V100.112z M467.08,140.708H49.317c-15.945,0-28.919-12.973-28.919-28.92
		c0-15.945,12.973-28.919,28.919-28.919h400.522c9.507,0,17.241,7.735,17.241,17.242V140.708z M467.08,429.129H59.826
		c-21.741,0-39.428-17.687-39.428-39.428V151.702c8.131,5.907,18.122,9.405,28.919,9.405H467.08v67.033h-57.965
		c-36.288,0-65.81,29.523-65.81,65.81s29.523,65.81,65.81,65.81h57.965V429.129z M491.602,339.362h-82.487
		c-25.041,0-45.412-20.372-45.412-45.412c0-25.04,20.372-45.412,45.412-45.412h82.487V339.362z"/>
	<path style="fill:#4D3D36;" d="M381.879,293.95c0,16.428,13.365,29.794,29.793,29.794s29.794-13.365,29.794-29.794
		c0-16.429-13.365-29.794-29.794-29.794C395.243,264.156,381.879,277.522,381.879,293.95z M411.671,284.555
		c5.18,0,9.396,4.215,9.396,9.396c0,5.18-4.215,9.396-9.396,9.396s-9.394-4.215-9.394-9.396
		C402.277,288.77,406.491,284.555,411.671,284.555z"/>
</g>
</svg>