<?xml version="1.0" encoding="iso-8859-1"?>
<!-- Uploaded to: SVG Repo, www.svgrepo.com, Generator: SVG Repo Mixer Tools -->
<svg height="800px" width="800px" version="1.1" id="Layer_1" xmlns="http://www.w3.org/2000/svg" xmlns:xlink="http://www.w3.org/1999/xlink" 
	 viewBox="0 0 512 512" xml:space="preserve">
<path style="fill:#FFAD61;" d="M488.542,262.203H23.458c-7.323,0-13.259-5.936-13.259-13.259v-50.57
	c0-7.323,5.936-13.259,13.259-13.259h465.084c7.323,0,13.259,5.936,13.259,13.259v50.57
	C501.801,256.267,495.865,262.203,488.542,262.203z"/>
<path style="fill:#FFE6B8;" d="M103.962,494.151h304.076c20.432,0,37.744-15.047,40.592-35.28l27.673-196.668H35.697l27.674,196.669
	C66.217,479.105,83.529,494.151,103.962,494.151z"/>
<path style="fill:#FFAD61;" d="M274.359,233.052h-36.717c-5.07,0-9.179-4.109-9.179-9.179V27.028c0-5.07,4.109-9.179,9.179-9.179
	h36.717c5.07,0,9.179,4.109,9.179,9.179v196.845C283.538,228.943,279.429,233.052,274.359,233.052z"/>
<g>
	<path style="fill:#4D3D36;" d="M488.542,174.916H293.737V27.028c0-10.686-8.693-19.378-19.378-19.378h-36.717
		c-10.686,0-19.378,8.693-19.378,19.378v147.888H23.458C10.524,174.916,0,185.439,0,198.375v50.57
		c0,12.936,10.524,23.458,23.458,23.458h3.375L53.27,460.293c3.534,25.117,25.327,44.057,50.691,44.057h304.076
		c25.365,0,47.157-18.941,50.691-44.057l26.438-187.891h3.375c12.936,0,23.458-10.523,23.458-23.458v-50.57
		C512,185.439,501.478,174.916,488.542,174.916z M238.661,28.048h34.677v194.805h-34.677V28.048z M438.53,457.451
		c-2.126,15.108-15.235,26.502-30.492,26.502H103.962c-15.257,0-28.366-11.394-30.492-26.502L47.432,272.402h417.135L438.53,457.451
		z M23.458,252.004c-1.687,0-3.06-1.373-3.06-3.06v-50.57c0-1.687,1.373-3.06,3.06-3.06h194.805v28.558
		c0,10.686,8.693,19.378,19.378,19.378h36.717c10.686,0,19.378-8.693,19.378-19.378v-28.558h194.805c1.687,0,3.06,1.373,3.06,3.06
		v50.57c0,1.687-1.373,3.06-3.06,3.06H23.458z"/>
	<path style="fill:#4D3D36;" d="M110.151,459.474c5.633,0,10.199-4.567,10.199-10.199V306.486c0-5.632-4.566-10.199-10.199-10.199
		s-10.199,4.567-10.199,10.199v142.789C99.952,454.907,104.518,459.474,110.151,459.474z"/>
	<path style="fill:#4D3D36;" d="M168.491,459.474c5.633,0,10.199-4.567,10.199-10.199V306.486c0-5.632-4.566-10.199-10.199-10.199
		c-5.633,0-10.199,4.567-10.199,10.199v142.789C158.292,454.907,162.858,459.474,168.491,459.474z"/>
	<path style="fill:#4D3D36;" d="M226.83,459.474c5.633,0,10.199-4.567,10.199-10.199V306.486c0-5.632-4.566-10.199-10.199-10.199
		s-10.199,4.567-10.199,10.199v142.789C216.631,454.907,221.197,459.474,226.83,459.474z"/>
	<path style="fill:#4D3D36;" d="M285.17,459.474c5.632,0,10.199-4.567,10.199-10.199V306.486c0-5.632-4.567-10.199-10.199-10.199
		c-5.632,0-10.199,4.567-10.199,10.199v142.789C274.971,454.907,279.537,459.474,285.17,459.474z"/>
	<path style="fill:#4D3D36;" d="M343.509,459.474c5.632,0,10.199-4.567,10.199-10.199V306.486c0-5.632-4.567-10.199-10.199-10.199
		c-5.632,0-10.199,4.567-10.199,10.199v142.789C333.31,454.907,337.876,459.474,343.509,459.474z"/>
	<path style="fill:#4D3D36;" d="M401.849,324.85c5.632,0,10.199-4.567,10.199-10.199v-8.164c0-5.632-4.567-10.199-10.199-10.199
		c-5.632,0-10.199,4.567-10.199,10.199v8.164C391.649,320.283,396.217,324.85,401.849,324.85z"/>
	<path style="fill:#4D3D36;" d="M401.849,459.474c5.632,0,10.199-4.567,10.199-10.199v-95.871c0-5.632-4.567-10.199-10.199-10.199
		c-5.632,0-10.199,4.567-10.199,10.199v95.871C391.649,454.907,396.217,459.474,401.849,459.474z"/>
</g>
</svg>